<?xml version="1.0" standalone="no"?>
<!DOCTYPE svg PUBLIC "-//W3C//DTD SVG 20010904//EN"
 "http://www.w3.org/TR/2001/REC-SVG-20010904/DTD/svg10.dtd">
<svg version="1.0" xmlns="http://www.w3.org/2000/svg"
 width="400.000000pt" height="400.000000pt" viewBox="0 0 400.000000 400.000000"
 preserveAspectRatio="xMidYMid meet">
<metadata>
Created by potrace 1.14, written by Peter Selinger 2001-2017
</metadata>
<g transform="translate(0.000000,400.000000) scale(0.100000,-0.100000)"
fill="#000000" stroke="none">
<path d="M1885 3480 c-11 -4 -23 -6 -27 -3 -5 2 -8 -1 -8 -7 0 -6 -4 -9 -10
-5 -5 3 -17 2 -27 -3 -10 -5 -45 -22 -78 -38 -33 -15 -65 -35 -72 -44 -7 -8
-13 -12 -13 -8 -1 20 -140 -139 -140 -160 0 -5 -7 -15 -15 -22 -9 -7 -13 -15
-10 -18 3 -3 0 -11 -6 -19 -6 -7 -8 -13 -3 -13 5 0 4 -4 -3 -8 -6 -4 -14 -19
-17 -32 -3 -14 -8 -36 -11 -50 -9 -33 -13 -202 -6 -215 3 -5 7 -21 9 -35 7
-48 55 -155 90 -200 51 -64 125 -132 169 -155 21 -11 40 -22 43 -25 3 -3 10
-6 15 -7 6 -1 30 -10 55 -18 24 -9 59 -18 77 -19 19 -2 36 -5 38 -8 7 -7 175
4 183 12 1 1 11 4 22 5 11 1 22 4 25 5 3 1 8 3 13 4 4 1 27 11 52 22 25 11 48
22 52 23 25 7 168 143 168 159 0 6 4 12 8 12 10 0 65 105 65 125 0 8 4 15 8
15 8 0 24 106 22 143 0 9 4 17 10 17 5 0 4 6 -2 14 -8 10 -9 16 -1 21 6 3 7
12 3 18 -4 7 -8 27 -10 47 -2 19 -8 49 -14 68 -6 18 -12 39 -13 45 -5 22 -41
92 -58 111 -10 11 -18 24 -18 28 0 5 -25 33 -55 63 -30 31 -55 53 -55 50 0 -4
-8 1 -17 11 -23 23 -130 72 -193 89 -54 14 -212 18 -245 5z"/>
<path d="M885 1760 c-3 -11 -11 -20 -16 -20 -6 0 -8 -4 -4 -9 3 -6 -1 -13 -8
-18 -7 -4 -21 -25 -31 -45 -9 -21 -21 -38 -26 -38 -6 0 -10 -4 -10 -10 0 -5
-49 -83 -108 -172 -136 -204 -182 -276 -182 -286 0 -8 91 -103 136 -142 68
-58 198 -150 214 -150 5 0 10 -4 10 -10 0 -5 7 -10 15 -10 8 0 15 -4 15 -10 0
-5 5 -10 11 -10 6 0 23 -9 39 -20 15 -11 30 -17 34 -13 3 3 6 2 6 -4 0 -9 27
-21 47 -21 3 0 9 -4 12 -9 9 -12 99 -53 116 -53 8 0 15 -4 15 -10 0 -5 9 -10
20 -10 11 0 20 -4 20 -8 0 -5 6 -9 13 -10 18 -1 39 -7 72 -21 48 -21 188 -63
215 -66 14 -1 33 -6 43 -10 10 -4 31 -8 47 -9 17 0 30 -3 30 -7 0 -5 18 -7
103 -12 9 -1 17 -4 17 -7 0 -12 304 -16 420 -5 41 4 93 9 115 10 22 2 42 5 45
6 3 1 8 1 13 0 4 0 7 4 7 10 0 5 4 8 9 5 11 -7 91 8 186 36 39 11 75 21 80 23
6 1 19 5 30 10 11 4 61 23 110 43 50 19 106 43 126 53 20 10 39 15 43 12 3 -4
6 -1 6 6 0 7 5 9 10 6 6 -3 10 -3 10 2 0 4 15 14 33 22 17 8 50 26 72 40 22
14 43 25 47 26 4 0 16 8 27 17 11 9 30 22 42 29 13 6 28 16 33 21 6 5 34 25
61 46 72 53 91 70 161 141 62 64 63 64 46 90 -9 14 -19 28 -22 31 -13 11 -55
85 -52 93 1 4 -2 7 -6 7 -10 0 -62 77 -62 91 0 5 -3 9 -8 9 -4 0 -18 20 -32
45 -14 25 -28 45 -31 45 -4 0 -12 14 -19 30 -7 17 -16 30 -21 30 -5 0 -9 4 -9
9 0 6 -20 39 -45 75 -25 37 -45 71 -45 76 0 6 -4 10 -10 10 -5 0 -10 6 -10 14
0 28 -26 22 -65 -15 -90 -84 -131 -118 -142 -119 -7 0 -13 -4 -13 -8 0 -8 -55
-43 -65 -42 -3 0 -12 -5 -20 -12 -26 -23 -41 -33 -55 -36 -8 -2 -17 -7 -20
-10 -4 -6 -95 -53 -110 -57 -3 -1 -18 -8 -35 -15 -16 -7 -34 -14 -40 -16 -5
-1 -27 -9 -48 -18 -21 -9 -42 -14 -47 -11 -6 4 -10 2 -10 -3 0 -10 -55 -26
-77 -23 -6 1 -14 -3 -18 -8 -3 -6 -12 -8 -20 -4 -8 3 -15 0 -15 -6 0 -6 -7 -8
-15 -5 -8 4 -22 1 -30 -6 -11 -9 -15 -9 -15 -1 0 8 -5 9 -19 2 -10 -6 -46 -12
-80 -14 -34 -3 -65 -7 -68 -11 -3 -3 -14 -1 -24 5 -14 7 -19 6 -19 -2 0 -8 -4
-9 -13 0 -8 6 -16 8 -19 5 -5 -5 -87 -8 -98 -4 -3 1 -34 4 -69 6 -36 3 -70 9
-77 15 -8 7 -14 7 -19 -1 -4 -7 -13 -6 -28 2 -12 6 -33 12 -47 14 -14 1 -25 3
-25 4 0 1 -8 3 -17 5 -18 3 -84 23 -108 32 -8 3 -21 7 -28 9 -8 1 -21 6 -30
10 -9 4 -19 8 -22 9 -3 1 -22 9 -42 19 -21 9 -39 16 -40 15 -2 -1 -25 12 -53
27 -27 16 -67 38 -88 49 -21 11 -47 28 -58 38 -10 10 -19 15 -19 12 0 -13
-178 131 -219 178 -20 22 -28 22 -36 -3z"/>
</g>
</svg>
